<?xml version="1.0" standalone="no"?>
<!DOCTYPE svg PUBLIC "-//W3C//DTD SVG 20010904//EN"
 "http://www.w3.org/TR/2001/REC-SVG-20010904/DTD/svg10.dtd">
<svg version="1.0" xmlns="http://www.w3.org/2000/svg"
 width="1162.000000pt" height="1162.000000pt" viewBox="0 0 1162.000000 1162.000000"
 preserveAspectRatio="xMidYMid meet">
<metadata>
Created by potrace 1.14, written by Peter Selinger 2001-2017
</metadata>
<g transform="translate(0.000000,1162.000000) scale(0.100000,-0.100000)"
fill="#000000" stroke="none">
<path d="M5615 11123 c-115 -7 -308 -36 -488 -73 -106 -21 -239 -48 -297 -60
-192 -39 -515 -159 -594 -221 -31 -24 -56 -75 -56 -112 0 -13 -15 -37 -35 -57
-29 -28 -35 -41 -35 -76 0 -40 -3 -43 -54 -74 -101 -61 -107 -106 -42 -303 53
-161 69 -195 102 -207 33 -13 132 9 319 70 83 27 193 61 245 75 93 26 332 77
337 71 2 -1 7 -205 13 -452 6 -292 16 -526 29 -669 11 -121 25 -328 31 -460
13 -306 29 -565 40 -680 16 -151 40 -478 36 -482 -5 -5 -320 -33 -373 -33
l-41 0 -57 138 c-32 75 -70 166 -86 202 -39 93 -252 603 -309 740 -26 63 -110
266 -187 450 -77 184 -159 394 -183 465 -42 126 -140 373 -202 505 -17 36 -46
105 -65 154 -40 105 -170 367 -187 379 -21 14 -80 -5 -201 -64 -157 -77 -225
-140 -225 -206 0 -20 -11 -40 -35 -63 -24 -23 -36 -45 -40 -75 -6 -35 -15 -48
-65 -88 -86 -68 -92 -96 -49 -218 18 -52 52 -141 77 -199 70 -167 232 -589
232 -603 -1 -6 -43 75 -95 181 -138 282 -363 706 -390 736 -28 31 -68 34 -107
8 -47 -31 -198 -173 -249 -234 -40 -48 -47 -63 -43 -87 5 -21 1 -32 -13 -42
-28 -20 -65 -75 -67 -97 0 -11 -31 -52 -68 -91 -40 -41 -68 -80 -68 -92 0 -51
147 -462 275 -769 200 -481 479 -1202 473 -1222 -2 -5 -39 35 -84 89 -71 87
-152 199 -459 639 -78 111 -233 341 -412 611 -138 205 -164 227 -214 181 -32
-30 -127 -173 -174 -263 -20 -38 -54 -92 -75 -120 -98 -129 -164 -256 -156
-298 7 -33 117 -263 166 -346 l32 -54 -29 9 c-53 16 -125 9 -179 -19 -73 -37
-131 -107 -198 -241 -32 -65 -70 -130 -84 -144 -96 -103 -141 -199 -191 -402
-42 -177 -55 -305 -48 -500 19 -518 255 -1009 575 -1194 137 -80 207 -100 343
-101 l115 0 89 44 c103 51 202 143 249 231 17 30 56 88 88 128 32 40 58 77 58
82 0 5 24 50 54 102 92 159 118 257 132 486 4 61 8 112 9 112 2 0 32 -29 68
-64 136 -134 252 -205 397 -245 235 -65 491 40 604 249 16 30 51 81 77 113 26
33 61 85 77 116 16 31 45 85 65 121 75 138 111 369 88 573 -17 159 -75 386
-153 600 -22 60 -38 111 -35 113 5 5 87 -190 147 -350 23 -61 52 -128 65 -150
13 -23 62 -129 109 -236 184 -425 227 -508 276 -533 43 -23 95 -20 480 28 151
19 361 41 465 50 235 20 369 40 415 64 42 21 62 68 54 127 l-6 41 44 12 c70
18 98 51 98 114 0 29 5 37 29 47 38 15 56 59 53 130 -3 79 -21 181 -37 213
-13 26 -12 27 10 27 41 0 76 40 82 93 5 40 11 50 34 63 16 8 33 23 39 33 14
27 12 180 -4 356 -61 634 -89 1207 -99 1976 l-4 316 341 -1 c385 -1 408 2 432
60 8 18 14 50 14 69 0 50 16 75 46 75 39 0 80 47 88 103 4 27 12 47 20 47 7 0
22 10 33 23 25 27 43 145 43 284 0 86 -2 96 -24 118 -56 56 -354 111 -681 125
-207 9 -448 10 -560 3z m-3622 -4355 l28 -36 -41 -7 c-55 -9 -80 -38 -80 -91
0 -28 -6 -48 -16 -56 -61 -50 -64 -55 -64 -121 0 -70 -5 -77 -59 -77 -16 0
-40 -11 -55 -25 -26 -24 -26 -26 -26 -160 0 -74 -4 -135 -9 -135 -24 0 -160
263 -200 389 -21 63 -18 80 11 81 4 0 20 19 36 43 17 23 57 73 91 111 34 38
64 81 68 95 6 25 38 70 102 141 17 19 34 47 37 62 6 25 11 20 78 -75 40 -57
84 -119 99 -139z"/>
<path d="M7116 10937 c-14 -14 -31 -46 -37 -72 -7 -26 -23 -60 -36 -75 -13
-16 -34 -59 -48 -97 -19 -56 -28 -69 -52 -77 -15 -5 -36 -16 -46 -24 -28 -25
-62 -153 -136 -517 -38 -187 -81 -396 -96 -465 -22 -106 -63 -328 -95 -515 -5
-27 -22 -124 -39 -215 -65 -347 -95 -654 -94 -955 1 -320 38 -501 141 -690
111 -203 383 -355 636 -355 217 0 375 63 503 200 44 47 123 155 123 168 0 4
27 43 59 85 102 133 269 441 351 647 22 55 67 189 101 297 71 233 314 1173
365 1418 58 276 112 484 131 503 22 22 15 36 -34 74 -121 91 -259 158 -326
158 -39 0 -88 -50 -112 -115 -11 -27 -34 -73 -51 -101 -18 -28 -36 -67 -39
-87 -5 -25 -14 -38 -29 -43 -27 -8 -64 -42 -82 -75 -20 -39 -76 -243 -135
-494 -60 -257 -134 -538 -188 -715 -231 -754 -262 -839 -318 -883 -20 -15 -54
-32 -76 -38 -70 -19 -100 6 -160 134 -54 114 -69 362 -38 617 23 189 44 332
66 450 13 72 41 235 85 495 11 66 38 181 60 255 23 74 52 197 65 273 13 76 42
222 63 325 63 300 67 333 47 371 -11 23 -33 40 -68 56 -68 31 -299 93 -375
101 -55 6 -62 5 -86 -19z"/>
<path d="M9061 10006 c-12 -13 -31 -47 -42 -76 -11 -29 -30 -67 -43 -84 -13
-17 -32 -57 -42 -90 -10 -32 -25 -60 -34 -63 -69 -22 -77 -37 -179 -358 -139
-434 -198 -632 -271 -910 -102 -388 -143 -530 -225 -795 -40 -129 -84 -287
-98 -350 -85 -381 -97 -442 -97 -468 0 -38 30 -75 88 -109 l46 -27 -34 -8
c-19 -4 -190 -12 -380 -17 -594 -19 -1010 -68 -1318 -157 -157 -45 -214 -87
-227 -166 -5 -27 -18 -52 -40 -74 -30 -29 -33 -38 -30 -79 3 -45 2 -46 -40
-66 -71 -33 -98 -70 -103 -138 l-4 -59 -54 63 c-59 69 -162 161 -228 203 -112
71 -295 130 -516 168 -120 20 -182 25 -360 26 -236 2 -294 -5 -593 -68 -312
-65 -440 -120 -657 -282 -153 -115 -244 -220 -331 -383 -33 -61 -83 -139 -109
-172 -65 -80 -204 -344 -229 -436 -29 -105 -37 -231 -18 -306 46 -183 114
-303 238 -421 79 -73 161 -126 274 -174 193 -83 252 -97 545 -136 134 -18 446
-24 542 -10 l58 7 -6 -33 c-4 -19 -19 -44 -36 -58 -24 -21 -31 -38 -42 -99
-12 -74 -12 -75 -43 -76 -65 -3 -89 -46 -108 -198 -21 -166 -35 -504 -35 -847
l0 -305 -88 175 c-153 304 -345 622 -395 655 -32 21 -136 30 -179 16 -49 -16
-86 -59 -96 -111 -6 -28 -20 -57 -40 -78 -29 -31 -37 -52 -44 -121 -2 -14 -9
-26 -15 -29 -10 -3 -13 19 -13 90 0 229 -64 543 -145 714 -49 101 -143 228
-204 274 -63 47 -161 80 -240 80 -206 0 -409 -167 -556 -459 -19 -39 -48 -85
-64 -103 -73 -85 -182 -285 -229 -423 -68 -199 -97 -384 -89 -585 9 -278 78
-498 220 -710 96 -143 254 -277 388 -331 71 -28 164 -23 233 11 56 29 162 138
217 225 21 33 62 92 90 131 29 40 65 94 81 120 72 125 138 255 159 314 l24 65
6 -115 c4 -63 7 -225 8 -360 1 -237 16 -512 46 -844 11 -124 18 -163 32 -179
22 -25 165 -95 211 -103 48 -9 107 11 132 46 11 16 24 54 28 86 7 56 8 58 42
67 58 14 74 37 94 129 3 15 15 30 26 33 26 8 41 37 55 105 l11 55 16 -25 c8
-14 66 -113 128 -220 116 -200 243 -398 324 -506 49 -65 67 -76 158 -94 47 -9
62 -9 86 4 34 17 67 79 77 144 5 31 11 42 25 42 39 0 100 72 100 119 0 12 13
33 29 47 41 37 58 86 76 219 24 184 20 329 -25 939 -5 72 -14 253 -20 401 -5
149 -15 365 -21 480 -5 116 -9 432 -8 703 2 553 8 512 -74 554 -22 11 -37 21
-35 23 2 2 46 13 98 24 232 51 487 168 645 298 106 87 265 267 265 300 0 6 17
30 38 54 52 61 80 105 155 243 l65 118 6 -58 c49 -479 57 -527 95 -601 42 -84
90 -96 281 -69 144 20 183 31 217 60 23 20 27 33 31 89 l4 66 39 6 c50 9 86
50 95 110 3 25 10 45 14 45 4 0 20 12 35 26 26 24 36 26 234 40 234 16 475 41
539 55 24 5 54 16 67 25 24 15 51 82 57 137 2 24 10 32 43 43 48 16 72 46 81
101 4 29 14 47 31 58 35 23 49 64 67 195 27 193 37 240 51 240 8 0 85 9 171
21 212 27 244 48 244 158 0 48 0 49 37 56 53 10 93 54 93 104 0 33 5 43 28 57
46 26 54 48 53 146 -1 118 -15 201 -52 302 -37 103 -80 170 -118 186 l-29 11
17 62 c17 66 25 77 55 77 32 0 55 29 72 91 10 35 22 59 30 59 23 0 42 41 70
153 15 59 29 106 31 104 2 -3 -5 -143 -17 -311 -17 -255 -19 -311 -8 -333 18
-36 108 -84 273 -144 152 -55 205 -61 229 -27 18 26 44 100 49 143 3 24 8 29
25 27 31 -5 58 13 72 48 7 16 16 30 20 30 4 0 16 -41 25 -92 35 -194 125 -409
220 -530 77 -99 221 -203 330 -238 l40 -13 -51 -23 c-66 -29 -94 -64 -94 -119
0 -35 -4 -44 -26 -53 -30 -14 -56 -72 -52 -116 3 -29 -1 -33 -57 -61 -53 -27
-62 -35 -74 -73 -12 -40 -10 -56 39 -280 29 -130 55 -243 57 -249 3 -7 -6 -17
-20 -22 -13 -5 -48 -24 -77 -42 l-52 -32 4 -48 c4 -43 2 -51 -18 -64 -13 -8
-27 -15 -33 -15 -5 0 -21 35 -37 78 -75 212 -129 339 -156 366 -27 26 -34 28
-81 23 -29 -3 -95 -20 -148 -37 -121 -40 -154 -69 -151 -135 1 -25 -2 -45 -7
-45 -5 0 -23 -13 -41 -30 -29 -27 -31 -34 -29 -81 l3 -53 -44 -18 c-64 -27
-100 -65 -100 -104 0 -46 42 -203 89 -329 22 -60 39 -110 37 -112 -1 -2 -25
30 -52 70 -100 144 -248 353 -272 382 -30 38 -66 54 -117 54 -101 1 -155 -39
-155 -115 0 -24 -4 -44 -9 -44 -6 0 -24 -15 -41 -32 -29 -31 -31 -37 -28 -96
l4 -62 -42 0 c-35 0 -47 -5 -73 -35 -17 -20 -31 -45 -31 -55 0 -21 -15 -27
-25 -10 -13 20 -80 57 -127 68 -105 26 -234 8 -363 -52 -129 -60 -259 -206
-376 -422 -23 -43 -66 -110 -95 -149 -143 -194 -252 -455 -304 -734 -22 -120
-46 -358 -56 -558 l-7 -134 -40 73 c-63 116 -139 228 -305 448 -85 113 -169
222 -185 243 -18 22 -27 41 -21 46 5 4 57 27 117 51 112 44 178 85 197 121 7
12 10 38 8 59 -3 30 1 41 17 51 11 7 22 14 25 14 3 0 20 9 37 20 37 22 67 76
61 110 -4 17 3 27 24 39 33 20 58 64 58 103 0 36 -62 169 -125 268 -68 106
-156 192 -268 262 -120 74 -188 93 -338 93 -137 0 -231 -21 -339 -75 -184 -93
-324 -231 -416 -411 -32 -64 -75 -135 -95 -158 -164 -188 -188 -339 -88 -560
124 -276 158 -329 443 -696 263 -338 530 -699 588 -795 56 -93 121 -228 134
-279 6 -25 5 -27 -12 -18 -34 19 -109 97 -157 164 -52 72 -92 155 -127 263
-34 103 -64 128 -170 145 -111 18 -191 17 -263 -3 -77 -20 -94 -38 -108 -108
-6 -33 -17 -59 -23 -59 -20 -1 -44 -46 -56 -108 -12 -59 -14 -62 -53 -75 -56
-18 -76 -50 -89 -137 -12 -82 1 -262 26 -355 79 -299 298 -551 536 -619 134
-38 268 -38 425 0 243 60 488 224 559 377 14 29 40 68 60 88 31 32 63 85 157
254 15 28 33 69 40 93 7 23 15 42 19 42 4 0 20 -19 37 -42 88 -122 272 -276
406 -338 124 -57 203 -75 337 -74 130 1 228 21 301 61 59 32 155 130 194 198
16 28 50 77 75 110 103 132 231 379 266 514 12 47 25 79 28 71 3 -8 12 -44 21
-80 33 -129 78 -276 95 -311 29 -56 45 -65 88 -49 107 38 254 175 268 248 4
18 14 38 23 45 33 25 108 123 115 151 4 16 22 49 41 73 63 82 61 118 -24 483
-32 140 -57 257 -55 259 1 2 69 -44 150 -101 81 -58 190 -132 242 -164 82 -49
104 -59 154 -62 71 -5 106 8 136 52 19 28 23 45 20 88 -3 55 -4 54 45 57 11 0
34 16 53 35 25 25 34 43 34 68 0 27 7 39 31 57 17 13 37 39 45 58 14 31 13 44
-5 131 -11 54 -37 153 -59 222 -21 69 -49 170 -62 225 -59 258 -179 711 -226
856 -19 58 -34 109 -34 113 0 10 169 80 177 73 1 -2 19 -59 38 -128 58 -201
152 -489 199 -611 54 -140 175 -418 189 -436 6 -7 22 -12 36 -10 24 3 53 39
179 228 9 14 19 27 22 30 16 14 115 180 174 291 46 87 66 137 66 161 0 20 -33
125 -75 236 -62 167 -175 524 -175 553 0 5 33 24 73 42 110 52 143 96 120 158
-10 26 -9 28 31 43 70 27 126 95 111 134 -3 9 13 31 41 58 46 42 47 44 40 89
-8 61 -77 207 -107 228 -13 10 -33 17 -45 17 -39 0 -216 -67 -316 -120 l-96
-51 -17 78 c-51 244 -126 521 -155 571 -19 32 -19 32 0 32 11 0 62 13 113 30
151 48 291 162 362 292 15 28 50 79 76 112 27 34 63 89 81 123 18 34 48 89 65
122 18 33 45 100 60 148 25 82 27 101 27 273 1 152 -2 195 -17 242 -35 109
-73 131 -233 131 -117 1 -137 -11 -160 -91 -8 -31 -26 -66 -39 -77 -22 -19
-32 -44 -55 -131 -9 -36 -15 -43 -44 -48 -47 -9 -64 -32 -88 -122 -11 -44 -24
-83 -29 -88 -16 -18 -93 33 -128 84 -35 52 -84 177 -75 192 3 5 28 20 55 34
27 13 68 41 91 62 46 41 157 181 181 227 8 17 38 60 65 97 28 37 63 89 78 115
15 26 44 77 65 113 77 130 97 243 62 346 -12 36 -35 67 -88 121 -126 124 -263
171 -420 144 -181 -32 -327 -164 -465 -421 -34 -63 -67 -119 -74 -125 -19 -15
-104 -141 -132 -197 -14 -27 -28 -47 -32 -44 -5 3 -9 40 -10 83 -4 135 -22
314 -43 425 l-21 108 60 66 c33 37 72 90 87 119 14 29 35 61 46 71 19 17 99
129 99 138 0 3 27 53 60 112 72 130 92 206 93 359 1 188 -54 384 -147 524
-126 189 -572 571 -666 571 -15 0 -36 -10 -49 -24z m208 -1274 c13 -39 21 -77
18 -85 -5 -13 -135 -72 -143 -64 -2 2 10 39 27 83 17 43 36 94 42 112 6 18 15
31 21 29 6 -2 22 -36 35 -75z m-4561 -3477 c134 -26 222 -77 261 -152 14 -28
6 -33 -114 -67 -282 -79 -518 -49 -700 90 -43 33 -46 38 -31 50 27 19 165 54
299 74 154 23 186 24 285 5z m3552 -2011 c49 -241 143 -660 166 -740 5 -20 1
-21 -65 -28 -88 -8 -174 -39 -201 -73 -13 -17 -20 -41 -20 -69 0 -37 -4 -45
-34 -63 -37 -23 -46 -44 -46 -107 0 -39 -2 -41 -52 -65 -28 -13 -60 -36 -72
-51 -20 -28 -20 -29 -2 -195 9 -93 21 -190 26 -218 5 -27 11 -74 15 -104 l6
-54 -53 7 c-143 19 -243 107 -336 298 -110 221 -179 465 -183 641 -2 83 0 89
22 105 149 104 371 332 430 442 13 24 29 49 35 55 18 18 114 151 114 159 0 2
17 33 38 67 60 99 107 189 127 242 10 26 20 46 22 43 2 -2 30 -133 63 -292z
m-757 178 c21 -23 38 -69 31 -85 -6 -16 -121 -73 -129 -65 -9 9 56 168 69 168
7 0 20 -8 29 -18z m-4844 -407 c47 -129 62 -212 68 -370 5 -123 4 -139 -9
-128 -25 21 -67 118 -89 205 -31 129 -39 424 -10 392 5 -5 23 -49 40 -99z"/>
<path d="M1790 4883 c-44 -8 -170 -71 -234 -117 -105 -75 -178 -167 -271 -341
-27 -49 -65 -110 -85 -135 -92 -112 -202 -335 -240 -487 -46 -176 -49 -364
-10 -549 48 -230 145 -387 278 -450 47 -22 65 -25 131 -22 149 7 266 90 390
277 34 51 81 119 104 150 57 75 112 169 218 376 93 182 102 214 74 269 -21 40
-11 61 32 72 29 7 43 18 60 49 12 22 23 50 23 63 0 13 15 37 34 55 45 43 61
116 61 277 0 96 -5 138 -19 180 -65 189 -185 303 -347 330 -64 10 -152 11
-199 3z m-68 -710 c23 -21 24 -100 2 -229 -17 -102 -19 -93 30 -159 18 -24
-99 -185 -135 -185 -40 0 -68 161 -51 293 14 115 57 243 90 274 30 27 39 28
64 6z"/>
</g>
</svg>
